<?xml version="1.0"?>
<!DOCTYPE svg PUBLIC "-//W3C//DTD SVG 1.1//EN" "http://www.w3.org/Graphics/SVG/1.1/DTD/svg11.dtd">
<svg xmlns="http://www.w3.org/2000/svg" xmlns:xl="http://www.w3.org/1999/xlink" version="1.1" viewBox="289 379 34 33" width="34pt" height="33pt"><metadata xmlns:dc="http://purl.org/dc/elements/1.1/"><dc:date>2013-09-30 06:19Z</dc:date><!-- Produced by OmniGraffle Professional 5.4.2 --></metadata><defs></defs><g stroke="none" stroke-opacity="1" stroke-dasharray="none" fill="none" fill-opacity="1"><title>Canvas 1</title><g><title>Layer 1</title><path d="M 306.1219 379.9476 C 297.1269 379.9476 289.8329 387.2406 289.8329 396.2386 C 289.8329 403.4346 294.4999 409.5396 300.9739 411.6946 C 301.7889 411.8436 302.0859 411.3406 302.0859 410.9086 C 302.0859 410.5226 302.0719 409.4976 302.0639 408.1386 C 297.5329 409.1226 296.5769 405.9546 296.5769 405.9546 C 295.8359 404.0726 294.7679 403.5726 294.7679 403.5726 C 293.2889 402.5616 294.8799 402.5816 294.8799 402.5816 C 296.5149 402.6976 297.3749 404.2606 297.3749 404.2606 C 298.8279 406.7496 301.1869 406.0306 302.1159 405.6146 C 302.2639 404.5616 302.6839 403.8436 303.1499 403.4366 C 299.5329 403.0256 295.7299 401.6276 295.7299 395.3856 C 295.7299 393.6076 296.3649 392.1536 297.4069 391.0146 C 297.2389 390.6026 296.6799 388.9466 297.5659 386.7036 C 298.9339 386.2656 302.0459 388.3736 302.0459 388.3736 C 303.3449 388.0116 304.7389 387.8316 306.1239 387.8246 C 307.5069 387.8316 308.9009 388.0116 310.2019 388.3736 C 313.3119 386.2656 314.6769 386.7036 314.6769 386.7036 C 315.5659 388.9466 315.0069 390.6026 314.8389 391.0146 C 315.8829 392.1536 316.5139 393.6076 316.5139 395.3856 C 316.5139 401.6436 312.7049 403.0206 309.0759 403.4236 C 309.6609 403.9266 310.1819 404.9206 310.1819 406.4406 C 310.1819 408.6176 310.1619 410.3746 310.1619 410.9086 C 310.1619 411.3446 310.4549 411.8516 311.2819 411.6926 C 317.7489 409.5336 322.4129 403.4326 322.4129 396.2386 C 322.4129 387.2406 315.1189 379.9476 306.1219 379.9476 Z" fill="#131212"/></g></g></svg>
