<?xml version="1.0"?>
<!DOCTYPE svg PUBLIC "-//W3C//DTD SVG 1.1//EN" "http://www.w3.org/Graphics/SVG/1.1/DTD/svg11.dtd">
<svg xmlns="http://www.w3.org/2000/svg" xmlns:xl="http://www.w3.org/1999/xlink" version="1.1" viewBox="260 338 92 116" width="92pt" height="116pt"><metadata xmlns:dc="http://purl.org/dc/elements/1.1/"><dc:date>2013-09-30 06:21Z</dc:date><!-- Produced by OmniGraffle Professional 5.4.2 --></metadata><defs></defs><g stroke="none" stroke-opacity="1" stroke-dasharray="none" fill="none" fill-opacity="1"><title>Canvas 1</title><g><title>Layer 1</title><path d="M 320.5615 438.4287 L 274.8345 438.4497 L 274.8305 428.6847 L 320.5555 428.6617 Z" fill="#666867"/><path d="M 341.8359 384.792 L 334.0149 339.742 L 343.6379 338.072 L 351.4599 383.123 Z" fill="#dc5b20"/><path d="M 320.7656 425.8633 L 275.2336 421.6713 L 276.1296 411.9453 L 321.6616 416.1403 Z" fill="#8b7156"/><path d="M 322.1309 412.8271 L 277.9719 400.9571 L 280.5089 391.5261 L 324.6649 403.3961 Z" fill="#a57d41"/><path d="M 325.4678 400.6367 L 286.0808 377.4067 L 291.0448 368.9957 L 330.4298 392.2257 Z" fill="#ba7125"/><path d="M 332.0186 390.8857 L 306.2546 353.1087 L 314.3246 347.6067 L 340.0866 385.3857 Z" fill="#e16d22"/><path d="M 328.3262 406.3037 L 328.3262 446.2287 L 268.3512 446.2287 L 268.3512 406.3037 L 260.5402 406.3037 L 260.5402 453.8907 L 260.6182 453.8907 C 260.6182 453.9277 262.8982 453.9277 262.8982 453.9277 L 336.0602 453.9277 L 336.0602 453.8907 C 336.1382 453.8907 336.1382 451.6097 336.1382 451.6097 L 336.1382 406.3037 Z" fill="#666867"/></g></g></svg>
